ply
format ascii 1.0
element vertex 21
property float x
property float y
property float z
property uchar red
property uchar green
property uchar blue
end_header
0 0 0 102 94 87
1 1 1 102 94 87
2 2 2 102 94 87
3 3 3 102 94 87
4 4 4 102 94 87
5 5 5 102 94 87
6 6 6 102 94 87
7 7 7 102 94 87
8 8 8 102 94 87
9 9 9 102 94 87
10 10 10 102 94 87
11 11 11 102 94 87
12 12 12 102 94 87
13 13 13 102 94 87
14 14 14 102 94 87
15 15 15 102 94 87
16 16 16 102 94 87
17 17 17 102 94 87
18 18 18 102 94 87
19 19 19 102 94 87
20 20 20 102 94 87
